<svg width="164" height="166" viewBox="0 0 164 166" fill="none" xmlns="http://www.w3.org/2000/svg">
<path fill-rule="evenodd" clip-rule="evenodd" d="M117.146 102.315C105.108 96.1535 89.0453 94.0831 79.6115 93.3818C92.4514 92.4301 117.58 88.9404 128.099 76.0504C144.563 63.728 143.778 22.0357 143.778 22.0357C143.778 22.0357 104.273 17.6778 87.0249 37.3468C76.3055 48.0162 72.9828 66.5498 72.0144 79.4566C71.046 66.5665 67.7233 48.0162 57.0038 37.3468C39.7559 17.6611 0.250894 22.0357 0.250894 22.0357C0.250894 22.0357 -0.233317 48.0329 7.66434 65.0471C11.5547 73.429 18.6676 80.258 26.8825 84.4656C38.921 90.6268 54.9835 92.6972 64.4173 93.3985C54.9835 94.0998 38.921 96.1702 26.8825 102.331C18.6676 106.539 11.5547 113.368 7.66434 121.75C-0.233317 138.747 0.250894 164.745 0.250894 164.745C0.250894 164.745 39.7559 169.102 57.0038 149.433C67.7233 138.764 71.046 120.214 72.0144 107.324C72.9828 120.214 76.3055 138.764 87.0249 149.433C104.273 169.102 143.778 164.745 143.778 164.745C143.778 164.745 144.279 138.747 136.364 121.733C132.474 113.351 125.361 106.522 117.146 102.315ZM118.465 138.781C118.265 138.731 97.6442 132.853 71.1795 97.506C63.4154 103.567 43.9134 119.596 25.3464 141.486L24.5116 142.471L24.8455 141.219C24.8956 141.002 30.9399 119.763 67.7567 92.7139C64.2002 87.4377 55.835 75.299 23.5431 46.6971L22.8252 46.0627L23.7769 46.1962C24.4615 46.2964 41.0582 48.9011 71.3799 87.972C71.3799 87.972 71.7639 88.5063 72.4652 89.4413C76.7396 86.486 89.112 77.7034 116.929 46.2797L117.564 45.5617L117.43 46.5135C117.33 47.198 114.725 63.7113 75.9048 93.9161C83.2347 103.166 98.3955 121.032 118.732 138.263L119.734 139.115L118.482 138.781H118.465Z" fill="url(#paint0_linear_5115_1119)"/>
<circle cx="137.231" cy="27.0271" r="26.4089" fill="white"/>
<path d="M148.942 18.4352H125.112V17.482L146.082 15.8044V17.482H148.942V14.6225C148.942 12.5255 147.243 11.0538 145.169 11.3493L126.028 14.083C123.951 14.3804 122.253 16.3382 122.253 18.4352V37.4988C122.253 38.51 122.655 39.4798 123.37 40.1948C124.085 40.9098 125.054 41.3115 126.066 41.3115H148.942C149.953 41.3115 150.923 40.9098 151.638 40.1948C152.353 39.4798 152.755 38.51 152.755 37.4988V22.2479C152.755 21.2367 152.353 20.267 151.638 19.5519C150.923 18.8369 149.953 18.4352 148.942 18.4352ZM146.082 31.7912C145.707 31.791 145.335 31.7169 144.988 31.5731C144.641 31.4292 144.326 31.2184 144.06 30.9527C143.794 30.687 143.584 30.3716 143.44 30.0245C143.297 29.6774 143.223 29.3054 143.223 28.9297C143.223 28.5541 143.297 28.1821 143.441 27.8351C143.585 27.4881 143.796 27.1729 144.061 26.9073C144.327 26.6418 144.642 26.4312 144.99 26.2876C145.337 26.1439 145.709 26.0701 146.084 26.0702C146.843 26.0704 147.57 26.372 148.107 26.9087C148.643 27.4453 148.944 28.173 148.944 28.9316C148.944 29.6903 148.642 30.4178 148.105 30.954C147.569 31.4903 146.841 31.7914 146.082 31.7912Z" fill="#414243"/>
<defs>
<linearGradient id="paint0_linear_5115_1119" x1="0.451257" y1="21.8354" x2="143.578" y2="164.945" gradientUnits="userSpaceOnUse">
<stop stop-color="#5EDD4D"/>
<stop offset="1" stop-color="#05CE6C"/>
</linearGradient>
</defs>
</svg>
