<svg width="1501" height="1501" viewBox="0 0 1501 1501" fill="none" xmlns="http://www.w3.org/2000/svg">
<path fill-rule="evenodd" clip-rule="evenodd" d="M1221.95 843.393C1096.15 779.005 928.292 757.368 829.708 750.04C963.887 740.094 1226.49 703.625 1336.41 568.918C1508.46 440.143 1500.25 4.43808 1500.25 4.43808C1500.25 4.43808 1087.42 -41.1042 907.18 164.447C795.16 275.947 760.438 469.632 750.318 604.514C740.197 469.807 705.475 275.947 593.456 164.447C413.212 -41.2787 0.380683 4.43808 0.380683 4.43808C0.380683 4.43808 -4.67938 276.121 77.8521 453.928C118.507 541.523 192.838 612.889 278.684 656.861C404.488 721.249 572.343 742.886 670.927 750.214C572.343 757.543 404.488 779.18 278.684 843.567C192.838 887.539 118.507 958.906 77.8521 1046.5C-4.67938 1224.13 0.380683 1495.82 0.380683 1495.82C0.380683 1495.82 413.212 1541.36 593.456 1335.81C705.475 1224.31 740.197 1030.45 750.318 895.74C760.438 1030.45 795.16 1224.31 907.18 1335.81C1087.42 1541.36 1500.25 1495.82 1500.25 1495.82C1500.25 1495.82 1505.49 1224.13 1422.78 1046.33C1382.13 958.731 1307.8 887.364 1221.95 843.393ZM1235.73 1224.48C1233.64 1223.96 1018.15 1162.54 741.593 793.139C660.458 856.479 456.659 1023.99 262.632 1252.75L253.907 1263.04L257.397 1249.96C257.921 1247.69 321.084 1025.74 705.824 743.06C668.659 687.921 581.242 561.066 243.787 262.162L236.285 255.531L246.23 256.927C253.384 257.974 426.822 285.195 743.687 693.505C743.687 693.505 747.7 699.088 755.029 708.86C799.697 677.975 928.99 586.192 1219.68 257.8L1226.31 250.296L1224.92 260.242C1223.87 267.397 1196.65 439.969 790.973 755.623C867.572 852.292 1026 1039 1238.53 1219.07L1249 1227.97L1235.91 1224.48H1235.73Z" fill="url(#paint0_linear_862_25)"/>
<defs>
<linearGradient id="paint0_linear_862_25" x1="2.47449" y1="2.34419" x2="1498.21" y2="1497.86" gradientUnits="userSpaceOnUse">
<stop stop-color="#5EDD4D"/>
<stop offset="1" stop-color="#05CE6C"/>
</linearGradient>
</defs>
</svg>
