<svg width="164" height="166" viewBox="0 0 164 166" fill="none" xmlns="http://www.w3.org/2000/svg">
<path fill-rule="evenodd" clip-rule="evenodd" d="M117.087 102.315C105.048 96.1535 88.9857 94.0831 79.5519 93.3818C92.3919 92.4301 117.521 88.9404 128.04 76.0504C144.503 63.728 143.718 22.0357 143.718 22.0357C143.718 22.0357 104.213 17.6778 86.9654 37.3468C76.2459 48.0162 72.9232 66.5498 71.9548 79.4566C70.9864 66.5665 67.6637 48.0162 56.9443 37.3468C39.6963 17.6611 0.191324 22.0357 0.191324 22.0357C0.191324 22.0357 -0.292888 48.0329 7.60477 65.0471C11.4952 73.429 18.6081 80.258 26.823 84.4656C38.8615 90.6268 54.9239 92.6972 64.3577 93.3985C54.9239 94.0998 38.8615 96.1702 26.823 102.331C18.6081 106.539 11.4952 113.368 7.60477 121.75C-0.292888 138.747 0.191324 164.745 0.191324 164.745C0.191324 164.745 39.6963 169.102 56.9443 149.433C67.6637 138.764 70.9864 120.214 71.9548 107.324C72.9232 120.214 76.2459 138.764 86.9654 149.433C104.213 169.102 143.718 164.745 143.718 164.745C143.718 164.745 144.219 138.747 136.305 121.733C132.414 113.351 125.302 106.522 117.087 102.315ZM118.406 138.781C118.205 138.731 97.5846 132.853 71.12 97.506C63.3559 103.567 43.8538 119.596 25.2868 141.486L24.452 142.471L24.7859 141.219C24.836 141.002 30.8803 119.763 67.6971 92.7139C64.1406 87.4377 55.7755 75.299 23.4836 46.6971L22.7656 46.0627L23.7173 46.1962C24.4019 46.2964 40.9987 48.9011 71.3203 87.972C71.3203 87.972 71.7044 88.5063 72.4056 89.4413C76.68 86.486 89.0525 77.7034 116.87 46.2797L117.504 45.5617L117.37 46.5135C117.27 47.198 114.666 63.7113 75.8452 93.9161C83.1752 103.166 98.336 121.032 118.673 138.263L119.675 139.115L118.422 138.781H118.406Z" fill="url(#paint0_linear_5115_1120)"/>
<circle cx="137.172" cy="27.0271" r="26.4089" fill="white"/>
<path d="M137.172 8.37988C137.4 8.37988 137.624 8.43428 137.827 8.53809L153.606 16.6416C154.084 16.8869 154.385 17.3803 154.385 17.918V36.1357C154.385 36.6734 154.084 37.1669 153.606 37.4121L137.827 45.5146C137.416 45.7254 136.928 45.7255 136.517 45.5146L120.738 37.4121C120.261 37.1655 119.959 36.6735 119.959 36.1357V17.918C119.959 17.6544 120.032 17.3959 120.169 17.1709C120.306 16.9457 120.504 16.7623 120.738 16.6416L136.517 8.53809C136.719 8.43423 136.944 8.3799 137.172 8.37988ZM122.828 18.793V30.6484C124.901 28.8944 127.014 27.3643 128.205 27.0771C128.327 27.0556 128.455 27.0264 128.565 27.0264C130.039 27.0264 134.576 29.8853 137.936 32.5332C138.16 32.7021 138.442 32.7765 138.721 32.7402C138.999 32.7039 139.253 32.5605 139.427 32.3398C139.601 32.119 139.681 31.8381 139.651 31.5586C139.621 31.2793 139.483 31.0226 139.267 30.8438C139.066 30.6845 138.441 30.1986 137.585 29.5732C139.87 27.4834 143.81 24.1584 145.778 24.1582C147.137 24.1582 149.451 25.7634 151.517 27.4531V18.793L137.172 11.4258L122.828 18.793ZM135.02 16.9863C135.971 16.9863 136.883 17.3636 137.556 18.0361C138.228 18.7086 138.605 19.6213 138.605 20.5723C138.605 21.5231 138.228 22.435 137.556 23.1074C136.883 23.7799 135.971 24.1582 135.02 24.1582C134.069 24.1582 133.157 23.7798 132.484 23.1074C131.812 22.435 131.434 21.5232 131.434 20.5723C131.434 19.6212 131.812 18.7086 132.484 18.0361C133.157 17.3638 134.069 16.9864 135.02 16.9863Z" fill="#414243"/>
<defs>
<linearGradient id="paint0_linear_5115_1120" x1="0.391686" y1="21.8354" x2="143.518" y2="164.945" gradientUnits="userSpaceOnUse">
<stop stop-color="#5EDD4D"/>
<stop offset="1" stop-color="#05CE6C"/>
</linearGradient>
</defs>
</svg>
