<svg width="164" height="166" viewBox="0 0 164 166" fill="none" xmlns="http://www.w3.org/2000/svg">
<path fill-rule="evenodd" clip-rule="evenodd" d="M117.206 102.315C105.167 96.1535 89.1048 94.0831 79.6711 93.3818C92.511 92.4301 117.64 88.9404 128.159 76.0504C144.622 63.728 143.837 22.0357 143.837 22.0357C143.837 22.0357 104.332 17.6778 87.0845 37.3468C76.3651 48.0162 73.0424 66.5498 72.0739 79.4566C71.1055 66.5665 67.7828 48.0162 57.0634 37.3468C39.8154 17.6611 0.310464 22.0357 0.310464 22.0357C0.310464 22.0357 -0.173747 48.0329 7.72391 65.0471C11.6143 73.429 18.7272 80.258 26.9421 84.4656C38.9806 90.6268 55.0431 92.6972 64.4768 93.3985C55.0431 94.0998 38.9806 96.1702 26.9421 102.331C18.7272 106.539 11.6143 113.368 7.72391 121.75C-0.173747 138.747 0.310464 164.745 0.310464 164.745C0.310464 164.745 39.8154 169.102 57.0634 149.433C67.7828 138.764 71.1055 120.214 72.0739 107.324C73.0424 120.214 76.3651 138.764 87.0845 149.433C104.332 169.102 143.837 164.745 143.837 164.745C143.837 164.745 144.338 138.747 136.424 121.733C132.534 113.351 125.421 106.522 117.206 102.315ZM118.525 138.781C118.324 138.731 97.7038 132.853 71.2391 97.506C63.475 103.567 43.973 119.596 25.406 141.486L24.5711 142.471L24.9051 141.219C24.9552 141.002 30.9995 119.763 67.8162 92.7139C64.2598 87.4377 55.8946 75.299 23.6027 46.6971L22.8847 46.0627L23.8365 46.1962C24.521 46.2964 41.1178 48.9011 71.4395 87.972C71.4395 87.972 71.8235 88.5063 72.5248 89.4413C76.7992 86.486 89.1716 77.7034 116.989 46.2797L117.623 45.5617L117.49 46.5135C117.389 47.198 114.785 63.7113 75.9643 93.9161C83.2943 103.166 98.4551 121.032 118.792 138.263L119.794 139.115L118.542 138.781H118.525Z" fill="url(#paint0_linear_5115_1118)"/>
<circle cx="137.291" cy="27.0271" r="26.4089" fill="white"/>
<path d="M150.144 14.1738H124.438C123.301 14.1738 122.212 14.6252 121.408 15.4287C120.605 16.2322 120.153 17.3219 120.153 18.4582V19.8863H154.428V18.4582C154.428 17.3219 153.977 16.2322 153.174 15.4287C152.37 14.6252 151.28 14.1738 150.144 14.1738ZM120.153 35.5958C120.153 36.732 120.605 37.8218 121.408 38.6253C122.212 39.4288 123.301 39.8801 124.438 39.8801H150.144C151.28 39.8801 152.37 39.4288 153.174 38.6253C153.977 37.8218 154.428 36.732 154.428 35.5958V22.7426H120.153V35.5958ZM127.294 28.4551H133.006C133.385 28.4551 133.748 28.6056 134.016 28.8734C134.284 29.1412 134.435 29.5045 134.435 29.8832C134.435 30.262 134.284 30.6253 134.016 30.8931C133.748 31.1609 133.385 31.3114 133.006 31.3114H127.294C126.915 31.3114 126.552 31.1609 126.284 30.8931C126.016 30.6253 125.866 30.262 125.866 29.8832C125.866 29.5045 126.016 29.1412 126.284 28.8734C126.552 28.6056 126.915 28.4551 127.294 28.4551Z" fill="#414243"/>
<defs>
<linearGradient id="paint0_linear_5115_1118" x1="0.510827" y1="21.8354" x2="143.637" y2="164.945" gradientUnits="userSpaceOnUse">
<stop stop-color="#5EDD4D"/>
<stop offset="1" stop-color="#05CE6C"/>
</linearGradient>
</defs>
</svg>
