<svg width="156" height="151" viewBox="0 0 156 151" fill="none" xmlns="http://www.w3.org/2000/svg">
<path d="M140.658 72.6694C140.362 72.6694 140.07 72.7274 139.798 72.8403C139.525 72.9531 139.278 73.1186 139.069 73.3272C138.86 73.5358 138.695 73.7835 138.582 74.0561C138.469 74.3287 138.411 74.6208 138.411 74.9158V76.084C138.411 77.3246 139.416 78.3304 140.658 78.3304C141.899 78.3304 142.904 77.3246 142.904 76.084V74.9158C142.904 74.6208 142.846 74.3287 142.733 74.0561C142.62 73.7835 142.455 73.5358 142.246 73.3272C142.037 73.1186 141.79 72.9531 141.517 72.8403C141.245 72.7274 140.953 72.6694 140.658 72.6694Z" fill="black"/>
<path d="M140.658 72.6694C140.362 72.6694 140.07 72.7274 139.798 72.8403C139.525 72.9531 139.278 73.1186 139.069 73.3272C138.86 73.5358 138.695 73.7835 138.582 74.0561C138.469 74.3287 138.411 74.6208 138.411 74.9158V76.084C138.411 77.3246 139.416 78.3304 140.658 78.3304C141.899 78.3304 142.904 77.3246 142.904 76.084V74.9158C142.904 74.6208 142.846 74.3287 142.733 74.0561C142.62 73.7835 142.455 73.5358 142.246 73.3272C142.037 73.1186 141.79 72.9531 141.517 72.8403C141.245 72.7274 140.953 72.6694 140.658 72.6694Z" fill="url(#paint0_linear_tokens)"/>
<path d="M142.904 47.6213C142.904 41.8657 139.802 36.514 134.818 33.6566L86.5444 5.78064C81.5711 2.88687 75.3843 2.88804 70.4109 5.77742L22.14 33.6533C17.149 36.514 14.0469 41.866 14.0469 47.6216V103.379C14.0469 109.135 17.149 114.486 22.1333 117.344L70.4065 145.22C72.8582 146.643 75.6429 147.392 78.4777 147.389C81.3092 147.391 84.0907 146.644 86.54 145.223L134.811 117.347C139.802 114.486 142.904 109.134 142.904 103.379V86.3502C142.904 85.1097 141.899 84.1039 140.658 84.1039C139.416 84.1039 138.411 85.1097 138.411 86.3502V103.379C138.411 107.528 136.176 111.386 132.571 113.452L84.2893 141.335C80.7024 143.421 76.2489 143.42 72.6576 141.331L24.3735 113.449C20.7755 111.386 18.5399 107.529 18.5399 103.379V47.6213C18.5399 43.4718 20.7755 39.6138 24.3799 37.5482L72.662 9.66558C76.2489 7.58156 80.7024 7.58244 84.2937 9.6688L132.578 37.5515C136.176 39.6138 138.411 43.4715 138.411 47.6211V88.6496C138.411 89.8901 139.416 90.896 140.658 90.896C141.899 90.896 142.904 89.8901 142.904 88.6496L142.904 47.6213Z" fill="black"/>
<path d="M142.904 47.6213C142.904 41.8657 139.802 36.514 134.818 33.6566L86.5444 5.78064C81.5711 2.88687 75.3843 2.88804 70.4109 5.77742L22.14 33.6533C17.149 36.514 14.0469 41.866 14.0469 47.6216V103.379C14.0469 109.135 17.149 114.486 22.1333 117.344L70.4065 145.22C72.8582 146.643 75.6429 147.392 78.4777 147.389C81.3092 147.391 84.0907 146.644 86.54 145.223L134.811 117.347C139.802 114.486 142.904 109.134 142.904 103.379V86.3502C142.904 85.1097 141.899 84.1039 140.658 84.1039C139.416 84.1039 138.411 85.1097 138.411 86.3502V103.379C138.411 107.528 136.176 111.386 132.571 113.452L84.2893 141.335C80.7024 143.421 76.2489 143.42 72.6576 141.331L24.3735 113.449C20.7755 111.386 18.5399 107.529 18.5399 103.379V47.6213C18.5399 43.4718 20.7755 39.6138 24.3799 37.5482L72.662 9.66558C76.2489 7.58156 80.7024 7.58244 84.2937 9.6688L132.578 37.5515C136.176 39.6138 138.411 43.4715 138.411 47.6211V88.6496C138.411 89.8901 139.416 90.896 140.658 90.896C141.899 90.896 142.904 89.8901 142.904 88.6496L142.904 47.6213Z" fill="url(#paint1_linear_tokens)"/>
<path d="M77.3613 25.8359C78.035 25.432 78.9112 25.4319 79.6074 25.8359L120.92 49.6934C121.262 49.8919 121.547 50.1775 121.744 50.5205C121.941 50.8635 122.045 51.2528 122.044 51.6484V99.3633C122.045 99.7589 121.941 100.148 121.744 100.491C121.547 100.834 121.263 101.12 120.921 101.318L79.6074 125.176C79.2648 125.369 78.8777 125.469 78.4844 125.468C78.0801 125.468 77.6983 125.378 77.3613 125.176L36.0254 101.318C35.329 100.914 34.9024 100.172 34.9023 99.3633V51.6484C34.9016 51.2528 35.005 50.8635 35.2021 50.5205C35.3993 50.1775 35.6832 49.8919 36.0254 49.6934L77.3613 25.8359ZM52.5508 52.6738V64.4336H72.291V111.474H84.8906V64.4336H102.951V52.6738H52.5508Z" fill="black"/>
<path d="M77.3613 25.8359C78.035 25.432 78.9112 25.4319 79.6074 25.8359L120.92 49.6934C121.262 49.8919 121.547 50.1775 121.744 50.5205C121.941 50.8635 122.045 51.2528 122.044 51.6484V99.3633C122.045 99.7589 121.941 100.148 121.744 100.491C121.547 100.834 121.263 101.12 120.921 101.318L79.6074 125.176C79.2648 125.369 78.8777 125.469 78.4844 125.468C78.0801 125.468 77.6983 125.378 77.3613 125.176L36.0254 101.318C35.329 100.914 34.9024 100.172 34.9023 99.3633V51.6484C34.9016 51.2528 35.005 50.8635 35.2021 50.5205C35.3993 50.1775 35.6832 49.8919 36.0254 49.6934L77.3613 25.8359ZM52.5508 52.6738V64.4336H72.291V111.474H84.8906V64.4336H102.951V52.6738H52.5508Z" fill="url(#paint2_linear_tokens)"/>
<circle cx="128.358" cy="117.455" r="26.024" fill="#414243" stroke="#3BD759" stroke-width="2"/>
<path fill-rule="evenodd" clip-rule="evenodd" d="M137.312 119.226C134.924 118.004 131.737 117.593 129.866 117.454C132.413 117.265 137.398 116.573 139.485 114.015C142.751 111.571 142.595 103.299 142.595 103.299C142.595 103.299 134.758 102.435 131.336 106.337C129.21 108.454 128.55 112.131 128.358 114.691C128.166 112.134 127.507 108.454 125.38 106.337C121.959 102.432 114.121 103.299 114.121 103.299C114.121 103.299 114.025 108.457 115.592 111.832C116.364 113.495 117.775 114.85 119.405 115.685C121.793 116.907 124.98 117.318 126.851 117.457C124.98 117.596 121.793 118.007 119.405 119.229C117.775 120.064 116.364 121.419 115.592 123.082C114.025 126.454 114.121 131.611 114.121 131.611C114.121 131.611 121.959 132.476 125.38 128.574C127.507 126.457 128.166 122.777 128.358 120.22C128.55 122.777 129.21 126.457 131.336 128.574C134.758 132.476 142.595 131.611 142.595 131.611C142.595 131.611 142.695 126.454 141.125 123.078C140.353 121.415 138.942 120.061 137.312 119.226ZM137.574 126.46C137.534 126.45 133.443 125.284 128.193 118.272C126.652 119.474 122.783 122.654 119.1 126.997L118.934 127.192L119.001 126.944C119.01 126.901 120.21 122.687 127.514 117.321C126.808 116.274 125.149 113.866 118.742 108.192L118.6 108.066L118.789 108.093C118.924 108.112 122.217 108.629 128.232 116.38C128.232 116.38 128.309 116.486 128.448 116.672C129.296 116.086 131.75 114.343 137.269 108.109L137.395 107.967L137.368 108.156C137.348 108.291 136.832 111.567 129.13 117.56C130.584 119.395 133.592 122.939 137.627 126.358L137.825 126.527L137.577 126.46H137.574Z" fill="url(#paint3_linear_tokens)"/>
<defs>
<linearGradient id="paint0_linear_tokens" x1="138.418" y1="72.6779" x2="143.915" y2="77.04" gradientUnits="userSpaceOnUse">
<stop stop-color="#5EDD4D"/>
<stop offset="1" stop-color="#05CE6C"/>
</linearGradient>
<linearGradient id="paint1_linear_tokens" x1="14.2319" y1="3.82452" x2="156.744" y2="131.527" gradientUnits="userSpaceOnUse">
<stop stop-color="#5EDD4D"/>
<stop offset="1" stop-color="#05CE6C"/>
</linearGradient>
<linearGradient id="paint2_linear_tokens" x1="44.4398" y1="40.7764" x2="109.11" y2="108.75" gradientUnits="userSpaceOnUse">
<stop stop-color="#5EDD4D"/>
<stop offset="1" stop-color="#05CE6C"/>
</linearGradient>
<linearGradient id="paint3_linear_tokens" x1="114.161" y1="103.26" x2="142.556" y2="131.651" gradientUnits="userSpaceOnUse">
<stop stop-color="#5EDD4D"/>
<stop offset="1" stop-color="#05CE6C"/>
</linearGradient>
</defs>
</svg>

