<svg width="156" height="151" viewBox="0 0 156 151" fill="none" xmlns="http://www.w3.org/2000/svg">
<path d="M140.887 72.6694C140.592 72.6694 140.3 72.7274 140.027 72.8403C139.755 72.9531 139.507 73.1186 139.298 73.3272C139.09 73.5358 138.924 73.7835 138.811 74.0561C138.699 74.3287 138.641 74.6208 138.641 74.9158V76.084C138.641 77.3246 139.645 78.3304 140.887 78.3304C142.129 78.3304 143.133 77.3246 143.133 76.084V74.9158C143.133 74.6208 143.075 74.3287 142.963 74.0561C142.85 73.7835 142.684 73.5358 142.476 73.3272C142.267 73.1186 142.019 72.9531 141.747 72.8403C141.474 72.7274 141.182 72.6694 140.887 72.6694Z" fill="black"/>
<path d="M140.887 72.6694C140.592 72.6694 140.3 72.7274 140.027 72.8403C139.755 72.9531 139.507 73.1186 139.298 73.3272C139.09 73.5358 138.924 73.7835 138.811 74.0561C138.699 74.3287 138.641 74.6208 138.641 74.9158V76.084C138.641 77.3246 139.645 78.3304 140.887 78.3304C142.129 78.3304 143.133 77.3246 143.133 76.084V74.9158C143.133 74.6208 143.075 74.3287 142.963 74.0561C142.85 73.7835 142.684 73.5358 142.476 73.3272C142.267 73.1186 142.019 72.9531 141.747 72.8403C141.474 72.7274 141.182 72.6694 140.887 72.6694Z" fill="url(#paint0_linear_5342_2883)"/>
<path d="M143.134 47.6213C143.134 41.8657 140.032 36.514 135.048 33.6566L86.7739 5.78064C81.8005 2.88687 75.6138 2.88804 70.6404 5.77742L22.3695 33.6533C17.3785 36.514 14.2764 41.866 14.2764 47.6216V103.379C14.2764 109.135 17.3785 114.486 22.3628 117.344L70.636 145.22C73.0877 146.643 75.8724 147.392 78.7072 147.389C81.5387 147.391 84.3202 146.644 86.7695 145.223L135.04 117.347C140.031 114.486 143.134 109.134 143.134 103.379V86.3502C143.134 85.1097 142.129 84.1039 140.887 84.1039C139.645 84.1039 138.641 85.1097 138.641 86.3502V103.379C138.641 107.528 136.405 111.386 132.801 113.452L84.5188 141.335C80.9319 143.421 76.4784 143.42 72.8871 141.331L24.603 113.449C21.005 111.386 18.7694 107.529 18.7694 103.379V47.6213C18.7694 43.4718 21.005 39.6138 24.6094 37.5482L72.8915 9.66558C76.4784 7.58156 80.9319 7.58244 84.5232 9.6688L132.807 37.5515C136.405 39.6138 138.641 43.4715 138.641 47.6211V88.6496C138.641 89.8901 139.645 90.896 140.887 90.896C142.129 90.896 143.134 89.8901 143.134 88.6496L143.134 47.6213Z" fill="black"/>
<path d="M143.134 47.6213C143.134 41.8657 140.032 36.514 135.048 33.6566L86.7739 5.78064C81.8005 2.88687 75.6138 2.88804 70.6404 5.77742L22.3695 33.6533C17.3785 36.514 14.2764 41.866 14.2764 47.6216V103.379C14.2764 109.135 17.3785 114.486 22.3628 117.344L70.636 145.22C73.0877 146.643 75.8724 147.392 78.7072 147.389C81.5387 147.391 84.3202 146.644 86.7695 145.223L135.04 117.347C140.031 114.486 143.134 109.134 143.134 103.379V86.3502C143.134 85.1097 142.129 84.1039 140.887 84.1039C139.645 84.1039 138.641 85.1097 138.641 86.3502V103.379C138.641 107.528 136.405 111.386 132.801 113.452L84.5188 141.335C80.9319 143.421 76.4784 143.42 72.8871 141.331L24.603 113.449C21.005 111.386 18.7694 107.529 18.7694 103.379V47.6213C18.7694 43.4718 21.005 39.6138 24.6094 37.5482L72.8915 9.66558C76.4784 7.58156 80.9319 7.58244 84.5232 9.6688L132.807 37.5515C136.405 39.6138 138.641 43.4715 138.641 47.6211V88.6496C138.641 89.8901 139.645 90.896 140.887 90.896C142.129 90.896 143.134 89.8901 143.134 88.6496L143.134 47.6213Z" fill="url(#paint1_linear_5342_2883)"/>
<path d="M121.15 49.694L79.837 25.8363C79.1407 25.4322 78.2644 25.4322 77.5906 25.8363L36.2552 49.694C35.9129 49.8925 35.6289 50.1776 35.4317 50.5207C35.2345 50.8638 35.1311 51.2527 35.1318 51.6484V99.3637C35.1318 100.173 35.5585 100.914 36.2552 101.318L77.5906 125.176C77.9277 125.378 78.3095 125.468 78.714 125.468C79.1074 125.47 79.4945 125.369 79.8373 125.176L121.15 101.318C121.493 101.12 121.777 100.835 121.974 100.492C122.171 100.148 122.274 99.7595 122.274 99.3637V51.6484C122.274 51.2527 122.171 50.8638 121.973 50.5207C121.776 50.1776 121.492 49.8925 121.15 49.694ZM99.6286 69.9348L90.7999 78.5388L92.8892 90.6924C93.2036 92.5117 91.2717 93.9276 89.6317 93.0513L78.7137 87.3227L67.7956 93.0513C66.1331 93.9276 64.2011 92.5343 64.5156 90.6924L66.6049 78.5388L57.7762 69.9348C56.4506 68.6318 57.1921 66.3629 59.0343 66.0936L71.2328 64.3187L76.6918 53.2659C77.5229 51.581 79.9041 51.6036 80.713 53.2659L86.172 64.3187L98.393 66.0936C100.213 66.3629 100.954 68.6321 99.6286 69.9348Z" fill="black"/>
<path d="M121.15 49.694L79.837 25.8363C79.1407 25.4322 78.2644 25.4322 77.5906 25.8363L36.2552 49.694C35.9129 49.8925 35.6289 50.1776 35.4317 50.5207C35.2345 50.8638 35.1311 51.2527 35.1318 51.6484V99.3637C35.1318 100.173 35.5585 100.914 36.2552 101.318L77.5906 125.176C77.9277 125.378 78.3095 125.468 78.714 125.468C79.1074 125.47 79.4945 125.369 79.8373 125.176L121.15 101.318C121.493 101.12 121.777 100.835 121.974 100.492C122.171 100.148 122.274 99.7595 122.274 99.3637V51.6484C122.274 51.2527 122.171 50.8638 121.973 50.5207C121.776 50.1776 121.492 49.8925 121.15 49.694ZM99.6286 69.9348L90.7999 78.5388L92.8892 90.6924C93.2036 92.5117 91.2717 93.9276 89.6317 93.0513L78.7137 87.3227L67.7956 93.0513C66.1331 93.9276 64.2011 92.5343 64.5156 90.6924L66.6049 78.5388L57.7762 69.9348C56.4506 68.6318 57.1921 66.3629 59.0343 66.0936L71.2328 64.3187L76.6918 53.2659C77.5229 51.581 79.9041 51.6036 80.713 53.2659L86.172 64.3187L98.393 66.0936C100.213 66.3629 100.954 68.6321 99.6286 69.9348Z" fill="url(#paint2_linear_5342_2883)"/>
<path d="M93.3136 82.9033L96.258 100.173L80.7451 91.9998C80.1131 91.6745 79.4125 91.5049 78.7016 91.5049C77.9908 91.5049 77.2902 91.6745 76.6581 91.9998L61.1453 100.173L64.0897 82.9033C64.2166 82.2005 64.171 81.4774 63.9567 80.7961C63.7424 80.1149 63.3658 79.4958 62.8594 78.9923L50.291 66.7753L67.6057 64.2706C69.0562 64.0504 70.2865 63.1721 70.9458 61.8535L78.7243 46.1211L86.4586 61.8535C86.7744 62.4908 87.2385 63.043 87.8121 63.4636C88.3856 63.8842 89.0518 64.161 89.7545 64.2706L107.113 66.7753L94.5444 78.9923C93.5331 80.003 93.0498 81.4964 93.3136 82.9033Z" fill="black"/>
<path d="M93.3136 82.9033L96.258 100.173L80.7451 91.9998C80.1131 91.6745 79.4125 91.5049 78.7016 91.5049C77.9908 91.5049 77.2902 91.6745 76.6581 91.9998L61.1453 100.173L64.0897 82.9033C64.2166 82.2005 64.171 81.4774 63.9567 80.7961C63.7424 80.1149 63.3658 79.4958 62.8594 78.9923L50.291 66.7753L67.6057 64.2706C69.0562 64.0504 70.2865 63.1721 70.9458 61.8535L78.7243 46.1211L86.4586 61.8535C86.7744 62.4908 87.2385 63.043 87.8121 63.4636C88.3856 63.8842 89.0518 64.161 89.7545 64.2706L107.113 66.7753L94.5444 78.9923C93.5331 80.003 93.0498 81.4964 93.3136 82.9033Z" fill="url(#paint3_linear_5342_2883)"/>
<path d="M104.249 53.7816H53.2607V51.5136H104.249V53.7816ZM53.2607 54.5376H104.249V56.7216H53.2607V54.5376ZM53.2607 60.5856H104.249V62.6856H53.2607V60.5856ZM53.2607 57.5616H104.249V59.6616H53.2607V57.5616ZM53.2607 63.6936H104.249V65.6256H53.2607V63.6936ZM53.2607 66.7176H104.249V66.8856H87.7007V68.6496H69.4727V66.8856H53.2607V66.7176ZM69.4727 69.7416H87.7007V71.5896H69.4727V69.7416ZM69.4727 72.8496H87.7007V74.6136H69.4727V72.8496ZM69.4727 78.8976H87.7007V80.5776H69.4727V78.8976ZM69.4727 75.8736H87.7007V77.5536H69.4727V75.8736ZM69.4727 82.0056H87.7007V83.5176H69.4727V82.0056ZM69.4727 88.0536H87.7007V89.4816H69.4727V88.0536ZM69.4727 85.0296H87.7007V86.4576H69.4727V85.0296ZM69.4727 91.1616H87.7007V92.4216H69.4727V91.1616ZM69.4727 94.1856H87.7007V95.4456H69.4727V94.1856ZM69.4727 97.2096H87.7007V98.3856H69.4727V97.2096ZM69.4727 100.318H87.7007V101.41H69.4727V100.318ZM69.4727 103.342H87.7007V104.35H69.4727V103.342ZM69.4727 106.366H87.7007V107.374H69.4727V106.366Z" fill="#414243"/>
<circle cx="128.587" cy="117.455" r="26.024" fill="#414243" stroke="#3BD759" stroke-width="2"/>
<path fill-rule="evenodd" clip-rule="evenodd" d="M137.541 119.226C135.153 118.004 131.967 117.593 130.095 117.454C132.642 117.265 137.628 116.573 139.714 114.015C142.981 111.571 142.825 103.299 142.825 103.299C142.825 103.299 134.988 102.435 131.566 106.337C129.439 108.454 128.78 112.131 128.588 114.691C128.396 112.134 127.737 108.454 125.61 106.337C122.188 102.432 114.351 103.299 114.351 103.299C114.351 103.299 114.255 108.457 115.822 111.832C116.593 113.495 118.004 114.85 119.634 115.685C122.022 116.907 125.209 117.318 127.081 117.457C125.209 117.596 122.022 118.007 119.634 119.229C118.004 120.064 116.593 121.419 115.822 123.082C114.255 126.454 114.351 131.611 114.351 131.611C114.351 131.611 122.188 132.476 125.61 128.574C127.737 126.457 128.396 122.777 128.588 120.22C128.78 122.777 129.439 126.457 131.566 128.574C134.988 132.476 142.825 131.611 142.825 131.611C142.825 131.611 142.924 126.454 141.354 123.078C140.582 121.415 139.171 120.061 137.541 119.226ZM137.803 126.46C137.763 126.45 133.673 125.284 128.422 118.272C126.882 119.474 123.013 122.654 119.329 126.997L119.164 127.192L119.23 126.944C119.24 126.901 120.439 122.687 127.743 117.321C127.038 116.274 125.378 113.866 118.972 108.192L118.829 108.066L119.018 108.093C119.154 108.112 122.446 108.629 128.462 116.38C128.462 116.38 128.538 116.486 128.677 116.672C129.525 116.086 131.98 114.343 137.498 108.109L137.624 107.967L137.598 108.156C137.578 108.291 137.061 111.567 129.36 117.56C130.814 119.395 133.822 122.939 137.856 126.358L138.055 126.527L137.806 126.46H137.803Z" fill="url(#paint4_linear_5342_2883)"/>
<defs>
<linearGradient id="paint0_linear_5342_2883" x1="138.647" y1="72.6779" x2="144.144" y2="77.04" gradientUnits="userSpaceOnUse">
<stop stop-color="#5EDD4D"/>
<stop offset="1" stop-color="#05CE6C"/>
</linearGradient>
<linearGradient id="paint1_linear_5342_2883" x1="14.4614" y1="3.82452" x2="156.973" y2="131.527" gradientUnits="userSpaceOnUse">
<stop stop-color="#5EDD4D"/>
<stop offset="1" stop-color="#05CE6C"/>
</linearGradient>
<linearGradient id="paint2_linear_5342_2883" x1="35.257" y1="25.6821" x2="133.978" y2="111.752" gradientUnits="userSpaceOnUse">
<stop stop-color="#5EDD4D"/>
<stop offset="1" stop-color="#05CE6C"/>
</linearGradient>
<linearGradient id="paint3_linear_5342_2883" x1="50.3726" y1="46.2016" x2="104.205" y2="102.783" gradientUnits="userSpaceOnUse">
<stop stop-color="#5EDD4D"/>
<stop offset="1" stop-color="#05CE6C"/>
</linearGradient>
<linearGradient id="paint4_linear_5342_2883" x1="114.391" y1="103.26" x2="142.785" y2="131.651" gradientUnits="userSpaceOnUse">
<stop stop-color="#5EDD4D"/>
<stop offset="1" stop-color="#05CE6C"/>
</linearGradient>
</defs>
</svg>
