<svg width="156" height="151" viewBox="0 0 156 151" fill="none" xmlns="http://www.w3.org/2000/svg">
<path d="M140.887 72.6978C140.592 72.6977 140.3 72.7557 140.027 72.8686C139.755 72.9815 139.507 73.1469 139.298 73.3555C139.09 73.5641 138.924 73.8118 138.811 74.0844C138.699 74.357 138.641 74.6491 138.641 74.9441V76.1123C138.641 77.3529 139.645 78.3587 140.887 78.3587C142.129 78.3587 143.133 77.3529 143.133 76.1123V74.9441C143.133 74.6491 143.075 74.357 142.963 74.0844C142.85 73.8118 142.684 73.5641 142.476 73.3555C142.267 73.1469 142.019 72.9815 141.747 72.8686C141.474 72.7557 141.182 72.6977 140.887 72.6978Z" fill="black"/>
<path d="M140.887 72.6978C140.592 72.6977 140.3 72.7557 140.027 72.8686C139.755 72.9815 139.507 73.1469 139.298 73.3555C139.09 73.5641 138.924 73.8118 138.811 74.0844C138.699 74.357 138.641 74.6491 138.641 74.9441V76.1123C138.641 77.3529 139.645 78.3587 140.887 78.3587C142.129 78.3587 143.133 77.3529 143.133 76.1123V74.9441C143.133 74.6491 143.075 74.357 142.963 74.0844C142.85 73.8118 142.684 73.5641 142.476 73.3555C142.267 73.1469 142.019 72.9815 141.747 72.8686C141.474 72.7557 141.182 72.6977 140.887 72.6978Z" fill="url(#paint0_linear_5340_2846)"/>
<path d="M143.134 47.6497C143.134 41.8941 140.032 36.5423 135.048 33.6849L86.7739 5.80896C81.8005 2.91519 75.6138 2.91636 70.6404 5.80574L22.3695 33.6817C17.3785 36.5423 14.2764 41.8944 14.2764 47.65V103.407C14.2764 109.163 17.3785 114.515 22.3627 117.372L70.636 145.248C73.0877 146.671 75.8724 147.42 78.7072 147.418C81.5387 147.419 84.3202 146.672 86.7695 145.251L135.04 117.375C140.031 114.515 143.134 109.163 143.134 103.407V86.3786C143.134 85.138 142.129 84.1322 140.887 84.1322C139.645 84.1322 138.641 85.138 138.641 86.3786V103.407C138.641 107.557 136.405 111.415 132.801 113.48L84.5188 141.363C80.9319 143.449 76.4784 143.448 72.8871 141.36L24.603 113.477C21.005 111.415 18.7694 107.557 18.7694 103.407V47.6497C18.7694 43.5001 21.005 39.6421 24.6094 37.5766L72.8915 9.6939C76.4784 7.60988 80.9319 7.61076 84.5232 9.69712L132.807 37.5798C136.405 39.6421 138.641 43.4998 138.641 47.6494V64.6779C138.641 65.9185 139.645 66.9243 140.887 66.9243C142.129 66.9243 143.134 65.9185 143.134 64.6779V47.6497H143.134Z" fill="black"/>
<path d="M143.134 47.6497C143.134 41.8941 140.032 36.5423 135.048 33.6849L86.7739 5.80896C81.8005 2.91519 75.6138 2.91636 70.6404 5.80574L22.3695 33.6817C17.3785 36.5423 14.2764 41.8944 14.2764 47.65V103.407C14.2764 109.163 17.3785 114.515 22.3627 117.372L70.636 145.248C73.0877 146.671 75.8724 147.42 78.7072 147.418C81.5387 147.419 84.3202 146.672 86.7695 145.251L135.04 117.375C140.031 114.515 143.134 109.163 143.134 103.407V86.3786C143.134 85.138 142.129 84.1322 140.887 84.1322C139.645 84.1322 138.641 85.138 138.641 86.3786V103.407C138.641 107.557 136.405 111.415 132.801 113.48L84.5188 141.363C80.9319 143.449 76.4784 143.448 72.8871 141.36L24.603 113.477C21.005 111.415 18.7694 107.557 18.7694 103.407V47.6497C18.7694 43.5001 21.005 39.6421 24.6094 37.5766L72.8915 9.6939C76.4784 7.60988 80.9319 7.61076 84.5232 9.69712L132.807 37.5798C136.405 39.6421 138.641 43.4998 138.641 47.6494V64.6779C138.641 65.9185 139.645 66.9243 140.887 66.9243C142.129 66.9243 143.134 65.9185 143.134 64.6779V47.6497H143.134Z" fill="url(#paint1_linear_5340_2846)"/>
<path d="M121.15 49.7223L79.837 25.8646C79.1407 25.4605 78.2644 25.4605 77.5906 25.8646L36.2552 49.7223C35.9129 49.9208 35.6289 50.206 35.4317 50.549C35.2345 50.8921 35.1311 51.2811 35.1318 51.6768V99.392C35.1318 100.201 35.5585 100.942 36.2552 101.347L77.5906 125.204C77.9277 125.407 78.3095 125.496 78.714 125.496C79.1074 125.498 79.4945 125.397 79.8373 125.204L121.15 101.347C121.493 101.148 121.777 100.863 121.974 100.52C122.171 100.177 122.274 99.7878 122.274 99.392V51.6768C122.274 51.281 122.171 50.8921 121.973 50.549C121.776 50.2059 121.492 49.9208 121.15 49.7223ZM99.6286 69.9631L90.7999 78.5671L92.8892 90.7207C93.2036 92.5401 91.2717 93.9559 89.6317 93.0796L78.7137 87.351L67.7956 93.0796C66.1331 93.9559 64.2011 92.5626 64.5156 90.7207L66.6049 78.5671L57.7762 69.9631C56.4506 68.6602 57.1921 66.3912 59.0343 66.1219L71.2328 64.347L76.6918 53.2942C77.5229 51.6094 79.9041 51.6319 80.713 53.2942L86.172 64.347L98.393 66.1219C100.213 66.3912 100.954 68.6604 99.6286 69.9631Z" fill="black"/>
<path d="M121.15 49.7223L79.837 25.8646C79.1407 25.4605 78.2644 25.4605 77.5906 25.8646L36.2552 49.7223C35.9129 49.9208 35.6289 50.206 35.4317 50.549C35.2345 50.8921 35.1311 51.2811 35.1318 51.6768V99.392C35.1318 100.201 35.5585 100.942 36.2552 101.347L77.5906 125.204C77.9277 125.407 78.3095 125.496 78.714 125.496C79.1074 125.498 79.4945 125.397 79.8373 125.204L121.15 101.347C121.493 101.148 121.777 100.863 121.974 100.52C122.171 100.177 122.274 99.7878 122.274 99.392V51.6768C122.274 51.281 122.171 50.8921 121.973 50.549C121.776 50.2059 121.492 49.9208 121.15 49.7223ZM99.6286 69.9631L90.7999 78.5671L92.8892 90.7207C93.2036 92.5401 91.2717 93.9559 89.6317 93.0796L78.7137 87.351L67.7956 93.0796C66.1331 93.9559 64.2011 92.5626 64.5156 90.7207L66.6049 78.5671L57.7762 69.9631C56.4506 68.6602 57.1921 66.3912 59.0343 66.1219L71.2328 64.347L76.6918 53.2942C77.5229 51.6094 79.9041 51.6319 80.713 53.2942L86.172 64.347L98.393 66.1219C100.213 66.3912 100.954 68.6604 99.6286 69.9631Z" fill="url(#paint2_linear_5340_2846)"/>
<path d="M86.1718 78.1629L87.6771 86.9914L79.7469 82.8131C79.4238 82.6468 79.0656 82.5601 78.7022 82.5601C78.3388 82.5601 77.9807 82.6468 77.6576 82.8131L69.7274 86.9914L71.2326 78.1629C71.2975 77.8037 71.2741 77.434 71.1646 77.0857C71.055 76.7375 70.8626 76.421 70.6037 76.1636L64.1787 69.9183L73.03 68.6379C73.7715 68.5253 74.4004 68.0763 74.7374 67.4023L78.7138 59.3599L82.6676 67.4023C82.829 67.7281 83.0663 68.0104 83.3595 68.2254C83.6527 68.4404 83.9932 68.5819 84.3525 68.6379L93.226 69.9183L86.8011 76.1636C86.2841 76.6803 86.037 77.4437 86.1718 78.1629Z" fill="black"/>
<path d="M86.1718 78.1629L87.6771 86.9914L79.7469 82.8131C79.4238 82.6468 79.0656 82.5601 78.7022 82.5601C78.3388 82.5601 77.9807 82.6468 77.6576 82.8131L69.7274 86.9914L71.2326 78.1629C71.2975 77.8037 71.2741 77.434 71.1646 77.0857C71.055 76.7375 70.8626 76.421 70.6037 76.1636L64.1787 69.9183L73.03 68.6379C73.7715 68.5253 74.4004 68.0763 74.7374 67.4023L78.7138 59.3599L82.6676 67.4023C82.829 67.7281 83.0663 68.0104 83.3595 68.2254C83.6527 68.4404 83.9932 68.5819 84.3525 68.6379L93.226 69.9183L86.8011 76.1636C86.2841 76.6803 86.037 77.4437 86.1718 78.1629Z" fill="url(#paint3_linear_5340_2846)"/>
<circle cx="128.587" cy="117.483" r="26.024" fill="#414243" stroke="#3BD759" stroke-width="2"/>
<path fill-rule="evenodd" clip-rule="evenodd" d="M137.541 119.254C135.153 118.032 131.967 117.621 130.095 117.482C132.642 117.293 137.628 116.601 139.714 114.044C142.981 111.599 142.825 103.328 142.825 103.328C142.825 103.328 134.988 102.463 131.566 106.365C129.439 108.482 128.78 112.159 128.588 114.719C128.396 112.162 127.737 108.482 125.61 106.365C122.188 102.46 114.351 103.328 114.351 103.328C114.351 103.328 114.255 108.485 115.822 111.861C116.593 113.524 118.004 114.878 119.634 115.713C122.022 116.935 125.209 117.346 127.081 117.485C125.209 117.624 122.022 118.035 119.634 119.258C118.004 120.092 116.593 121.447 115.822 123.11C114.255 126.482 114.351 131.64 114.351 131.64C114.351 131.64 122.188 132.504 125.61 128.602C127.737 126.485 128.396 122.805 128.588 120.248C128.78 122.805 129.439 126.485 131.566 128.602C134.988 132.504 142.825 131.64 142.825 131.64C142.825 131.64 142.924 126.482 141.354 123.107C140.582 121.444 139.171 120.089 137.541 119.254ZM137.803 126.489C137.763 126.479 133.673 125.313 128.422 118.3C126.882 119.503 123.013 122.683 119.329 127.025L119.164 127.221L119.23 126.972C119.24 126.929 120.439 122.716 127.743 117.35C127.038 116.303 125.378 113.895 118.972 108.22L118.829 108.094L119.018 108.121C119.154 108.141 122.446 108.658 128.462 116.409C128.462 116.409 128.538 116.515 128.677 116.7C129.525 116.114 131.98 114.372 137.498 108.138L137.624 107.995L137.598 108.184C137.578 108.32 137.061 111.596 129.36 117.588C130.814 119.423 133.822 122.968 137.856 126.386L138.055 126.555L137.806 126.489H137.803Z" fill="url(#paint4_linear_5340_2846)"/>
<defs>
<linearGradient id="paint0_linear_5340_2846" x1="138.647" y1="72.7062" x2="144.144" y2="77.0683" gradientUnits="userSpaceOnUse">
<stop stop-color="#5EDD4D"/>
<stop offset="1" stop-color="#05CE6C"/>
</linearGradient>
<linearGradient id="paint1_linear_5340_2846" x1="14.4614" y1="3.85284" x2="156.973" y2="131.555" gradientUnits="userSpaceOnUse">
<stop stop-color="#5EDD4D"/>
<stop offset="1" stop-color="#05CE6C"/>
</linearGradient>
<linearGradient id="paint2_linear_5340_2846" x1="35.257" y1="25.7104" x2="133.978" y2="111.781" gradientUnits="userSpaceOnUse">
<stop stop-color="#5EDD4D"/>
<stop offset="1" stop-color="#05CE6C"/>
</linearGradient>
<linearGradient id="paint3_linear_5340_2846" x1="64.2204" y1="59.401" x2="91.7393" y2="88.3255" gradientUnits="userSpaceOnUse">
<stop stop-color="#5EDD4D"/>
<stop offset="1" stop-color="#05CE6C"/>
</linearGradient>
<linearGradient id="paint4_linear_5340_2846" x1="114.391" y1="103.288" x2="142.785" y2="131.679" gradientUnits="userSpaceOnUse">
<stop stop-color="#5EDD4D"/>
<stop offset="1" stop-color="#05CE6C"/>
</linearGradient>
</defs>
</svg>
